<svg id="non_pic" data-name="non pic" xmlns="http://www.w3.org/2000/svg" xmlns:xlink="http://www.w3.org/1999/xlink" width="103" height="78" viewBox="0 0 103 78">
  <defs>
    <clipPath id="clip-path">
      <rect id="range" width="48" height="48" transform="translate(-994 -144)" fill="#edeae5" stroke="#707070" stroke-width="1"/>
    </clipPath>
    <clipPath id="clip-path-2">
      <rect id="range-2" data-name="range" width="103" height="30" transform="translate(0.2)" fill="#edeae5"/>
    </clipPath>
  </defs>
  <g id="image-outline" transform="translate(1021 144)" clip-path="url(#clip-path)">
    <g id="image-outline-2" data-name="image-outline" transform="translate(-991 -138)">
      <path id="路径_147" data-name="路径 147" d="M292.5,137a4.5,4.5,0,1,0-4.5-4.5A4.5,4.5,0,0,0,292.5,137Zm0-6a1.5,1.5,0,1,1-1.5,1.5A1.5,1.5,0,0,1,292.5,131Z" transform="translate(-264 -122)" fill="#edeae5"/>
      <path id="路径_148" data-name="路径 148" d="M74,92.509V70a6.006,6.006,0,0,0-6-6H38a6.006,6.006,0,0,0-6,6V94a6.006,6.006,0,0,0,6,6H68a6.006,6.006,0,0,0,6-6V92.509ZM38,67H68a3.009,3.009,0,0,1,3,3V89.294l-4.434-3.7a4.479,4.479,0,0,0-6.066.281l-2.241,2.241-8.194-8.175a4.5,4.5,0,0,0-6.169-.178l-8.9,7.9V70A3.009,3.009,0,0,1,38,67ZM35,94V91.675L45.884,82a1.5,1.5,0,0,1,2.053.066l8.194,8.184L49.381,97H38A3.009,3.009,0,0,1,35,94Zm33,3H53.619l9-9a1.489,1.489,0,0,1,2.016-.094l6.356,5.3V94A3,3,0,0,1,68,97Z" transform="translate(-32 -64)" fill="#edeae5"/>
    </g>
  </g>
  <g id="Logo" transform="translate(-0.2 48)" clip-path="url(#clip-path-2)">
    <path id="路径_34" data-name="路径 34" d="M187.847,39.195a5.074,5.074,0,0,0-3.6-1.553c-.716-.1-1.439-.144-2.157-.231-.513-.062-1.9-.031-1.915-.963-.015-1.348,3.814-1.263,6.136.091l2.2-2.656a10.37,10.37,0,0,0-5.907-1.809c-1.2,0-5.621,0-5.7,4.67-.043,2.538,1.711,3.269,3.451,3.606.979.19,1.846.262,2.837.363.711.073,2.343.279,2.085,1.408-.237,1.035-3.9,1.547-6.885-.455l-2.266,2.839a10.6,10.6,0,0,0,6.486,1.9c3.5,0,4.8-1.44,5.259-2.129a4.639,4.639,0,0,0-.023-5.083" transform="translate(-123.488 -22.452)" fill="#edeae5"/>
    <path id="路径_35" data-name="路径 35" d="M89.839,34.847a4.6,4.6,0,0,0-2.061-2.061,7.8,7.8,0,0,0-6.5,0,4.718,4.718,0,0,0-2.061,2.061,7,7,0,0,0-.686,3.227v2.267a7.139,7.139,0,0,0,.686,3.274A4.9,4.9,0,0,0,81.276,45.7a7.8,7.8,0,0,0,6.5,0,4.844,4.844,0,0,0,2.061-2.061,7.1,7.1,0,0,0,.709-3.251V38.074a7,7,0,0,0-.709-3.227m-2.976,5.54a2.57,2.57,0,0,1-.619,1.832,2.244,2.244,0,0,1-1.717.641,2.179,2.179,0,0,1-1.717-.641,2.57,2.57,0,0,1-.618-1.832V38.074a2.511,2.511,0,0,1,.618-1.808,2.62,2.62,0,0,1,3.434,0,2.511,2.511,0,0,1,.619,1.808Z" transform="translate(-55.17 -22.453)" fill="#edeae5"/>
    <path id="路径_36" data-name="路径 36" d="M237.962,34.847a4.6,4.6,0,0,0-2.06-2.061,7.8,7.8,0,0,0-6.5,0,4.715,4.715,0,0,0-2.06,2.061,7,7,0,0,0-.687,3.227v2.267a7.135,7.135,0,0,0,.687,3.274A4.894,4.894,0,0,0,229.4,45.7a7.806,7.806,0,0,0,6.5,0,4.842,4.842,0,0,0,2.06-2.061,7.1,7.1,0,0,0,.71-3.251V38.074a7,7,0,0,0-.71-3.227m-2.976,5.54a2.571,2.571,0,0,1-.618,1.832,2.245,2.245,0,0,1-1.717.641,2.179,2.179,0,0,1-1.717-.641,2.57,2.57,0,0,1-.618-1.832V38.074a2.511,2.511,0,0,1,.618-1.808,2.62,2.62,0,0,1,3.434,0,2.512,2.512,0,0,1,.618,1.808Z" transform="translate(-158.857 -22.453)" fill="#edeae5"/>
    <path id="路径_37" data-name="路径 37" d="M136.763,32.634v8.1a2.67,2.67,0,0,1-.6,1.832,2.44,2.44,0,0,1-3.3,0,2.662,2.662,0,0,1-.572-1.832v-8.1h-3.663v8.059a7.141,7.141,0,0,0,.664,3.274,4.92,4.92,0,0,0,2.015,2.083,4.644,4.644,0,0,0,.984.389,7.928,7.928,0,0,0,4.464,0,4.262,4.262,0,0,0,.939-.389,4.733,4.733,0,0,0,2.015-2.06,7.1,7.1,0,0,0,.71-3.251v-8.1Z" transform="translate(-90.245 -22.844)" fill="#edeae5"/>
    <path id="路径_38" data-name="路径 38" d="M284.826,38.1v6.547a2.67,2.67,0,0,1-.6,1.832,2.44,2.44,0,0,1-3.3,0,2.662,2.662,0,0,1-.572-1.832V38.1H276.7v6.5a7.14,7.14,0,0,0,.664,3.274,4.918,4.918,0,0,0,2.015,2.083,4.629,4.629,0,0,0,.984.389,7.928,7.928,0,0,0,4.464,0,4.247,4.247,0,0,0,.939-.389,4.731,4.731,0,0,0,2.014-2.06,7.1,7.1,0,0,0,.71-3.251V38.1Z" transform="translate(-193.889 -26.674)" fill="#edeae5"/>
    <path id="路径_39" data-name="路径 39" d="M304.238,20.542a1.88,1.88,0,0,0-2.642,0,1.855,1.855,0,0,0-.542,1.321,1.863,1.863,0,1,0,3.727,0,1.854,1.854,0,0,0-.543-1.321" transform="translate(-210.938 -14)" fill="#edeae5"/>
    <path id="路径_40" data-name="路径 40" d="M282.406,20.542A1.815,1.815,0,0,0,281.086,20a1.853,1.853,0,0,0-1.864,1.863,1.868,1.868,0,0,0,3.185,1.321,1.728,1.728,0,0,0,.542-1.321,1.762,1.762,0,0,0-.542-1.321" transform="translate(-195.655 -14)" fill="#edeae5"/>
    <path id="路径_41" data-name="路径 41" d="M39.722,39.195a5.074,5.074,0,0,0-3.6-1.553c-.716-.1-1.439-.144-2.157-.231-.513-.062-1.905-.031-1.915-.963-.015-1.348,3.814-1.263,6.136.091l2.2-2.656a10.37,10.37,0,0,0-5.907-1.809c-1.2,0-5.621,0-5.7,4.67-.043,2.538,1.711,3.269,3.451,3.606.979.19,1.846.262,2.837.363.711.073,2.343.279,2.085,1.408-.237,1.035-3.9,1.547-6.885-.455L28,44.506a10.6,10.6,0,0,0,6.486,1.9c3.5,0,4.8-1.44,5.259-2.129a4.639,4.639,0,0,0-.023-5.083" transform="translate(-19.8 -22.452)" fill="#edeae5"/>
  </g>
</svg>
